<svg id="bc6accaf-34da-4538-9e9a-3e7f999c7c70" data-name="Layer 1" xmlns="http://www.w3.org/2000/svg" viewBox="0 0 640 640"><defs><style>.ac4e062b-d31e-441c-ab73-231faff24604{fill:#86d629;}</style></defs><path class="ac4e062b-d31e-441c-ab73-231faff24604" d="M198.06,359.28q10-43.45,16.73-88.37c-61.56,13.27-109.12,20.63-134,18.89-6.28-.44-12.12-.91-17.63-1.42L-.19,588.2H149.06Z"/><path class="ac4e062b-d31e-441c-ab73-231faff24604" d="M433.34,323a218.66,218.66,0,0,0-4.49,29.18H427q-3.36-11.6-11.41-27.87t-12.9-23.38L363,235.05c-53.66,14-103.47,26.17-146.52,35.49q6.42,18.33,27.58,55.07L380.7,556.19c57.15-23.83,114.07-46.72,167-66.7l68.6-324.66c-53.38,15.44-107.14,30.7-159.08,45Z"/><path class="ac4e062b-d31e-441c-ab73-231faff24604" d="M622.67,134.75,640.19,51.8H490.57L466.79,164.5C518.2,154.86,570.77,144.85,622.67,134.75Z"/><path class="ac4e062b-d31e-441c-ab73-231faff24604" d="M335.19,188.86,252.67,51.8H113.15L74.32,235.57C133.23,225.25,227.17,208.62,335.19,188.86Z"/></svg>